# xmcd CD database file
#
# Track frame offsets:
#	150
#	29288
#	66810
#	100466
#	131526
#	169327
#	189679
#	224517
#	256801
#
# Disc length: 3818 seconds
#
# Revision: 0
# Processed by: cddbd v1.5.2PL0 Copyright (c) Steve Scherf et al.
# Submitted via: CDex 1.70beta2
#
DISCID=850ee809
DTITLE=Stefan Schmid - Extended
DYEAR=2010
DGENRE=Jazz
TTITLE0=Samsara
TTITLE1=One For The Wait
TTITLE2=James LaFleur
TTITLE3=Behind The Scenes
TTITLE4=Setting The Stage
TTITLE5=Murotation
TTITLE6=Who Pulls The Strings
TTITLE7=Dark Splendor
TTITLE8=Hyper Helgi
EXTD=YEAR: 2010
EXTT0=
EXTT1=
EXTT2=
EXTT3=
EXTT4=
EXTT5=
EXTT6=
EXTT7=
EXTT8=
PLAYORDER=
